# xmcd
#
# Track frame offsets:
#	150
#	13820
#	27691
#	45344
#	62033
#	75659
#	104258
#	125801
#	147692
#	172027
#
# Disc length: 2710 seconds
#
# Revision: 1
# Processed by: cddbd v1.5.2PL0 Copyright (c) Steve Scherf et al.
# Submitted via: audiograbber 1.83.01
#
DISCID=900a940a
DTITLE=BWO - You're Not Alone [cd maxi]
DYEAR=2009
DGENRE=Dance
TTITLE0=You're not alone [ballad radio edit]
TTITLE1=You're not alone [skyylab radio edit]
TTITLE2=You're not alone [fatty phunk radio edit]
TTITLE3=You're not alone [soundfactory radio edit]
TTITLE4=You're not alone [oscar holter radio mix]
TTITLE5=You're not alone [soundfactory club anthem]
TTITLE6=You're not alone [skyylab extended mix]
TTITLE7=You're not alone [fatty phunk extended mix]
TTITLE8=You're not alone [oscar holter vs tombola techhouse mix]
TTITLE9=You're not alone [soundfactory big room dub]
EXTD=
EXTT0=
EXTT1=
EXTT2=
EXTT3=
EXTT4=
EXTT5=
EXTT6=
EXTT7=
EXTT8=
EXTT9=
PLAYORDER=
